<svg width="10" height="11" viewBox="0 0 10 11" fill="none" xmlns="http://www.w3.org/2000/svg">
<path d="M0.99998 9.66666H3.46131V6.28199C3.46131 6.12955 3.51309 6.00177 3.61665 5.89866C3.71976 5.7951 3.84754 5.74333 3.99998 5.74333H5.99998C6.15242 5.74333 6.28042 5.7951 6.38398 5.89866C6.48709 6.00177 6.53865 6.12955 6.53865 6.28199V9.66666H8.99998V3.87199C8.99998 3.80355 8.98509 3.74133 8.95531 3.68533C8.92554 3.62933 8.88487 3.58044 8.83331 3.53866L5.24398 0.833327C5.17554 0.773771 5.0942 0.743994 4.99998 0.743994C4.90576 0.743994 4.82465 0.773771 4.75665 0.833327L1.16665 3.53866C1.11554 3.58133 1.07487 3.63022 1.04465 3.68533C1.01442 3.74044 0.999535 3.80266 0.99998 3.87199V9.66666ZM0.333313 9.66666V3.87199C0.333313 3.70133 0.371535 3.53977 0.44798 3.38733C0.524424 3.23488 0.629757 3.10933 0.76398 3.01066L4.35398 0.291994C4.54198 0.148438 4.75665 0.0766602 4.99798 0.0766602C5.23931 0.0766602 5.45531 0.148438 5.64598 0.291994L9.23598 3.00999C9.37065 3.10866 9.47598 3.23444 9.55198 3.38733C9.62842 3.53977 9.66665 3.70133 9.66665 3.87199V9.66666C9.66665 9.84533 9.6002 10.0011 9.46731 10.134C9.33442 10.2669 9.17865 10.3333 8.99998 10.3333H6.41065C6.25776 10.3333 6.12976 10.2818 6.02665 10.1787C5.92354 10.0751 5.87198 9.9471 5.87198 9.79466V6.41066H4.12798V9.79466C4.12798 9.94755 4.07642 10.0755 3.97331 10.1787C3.8702 10.2818 3.74242 10.3333 3.58998 10.3333H0.99998C0.821313 10.3333 0.665535 10.2669 0.532646 10.134C0.399757 10.0011 0.333313 9.84533 0.333313 9.66666Z" fill="black"/>
</svg>
