<svg width="64" height="64" viewBox="0 0 64 64" fill="none" xmlns="http://www.w3.org/2000/svg">
<path d="M8.00002 56C6.53335 56 5.27824 55.4782 4.23469 54.4346C3.19113 53.3911 2.66846 52.1351 2.66669 50.6666V18.6666C2.66669 17.2 3.18935 15.9449 4.23469 14.9013C5.28002 13.8577 6.53513 13.3351 8.00002 13.3333H16.4L19.7334 9.7333C20.2222 9.19997 20.8116 8.77775 21.5014 8.46663C22.1911 8.15552 22.9129 7.99997 23.6667 7.99997H34.6667C35.4222 7.99997 36.056 8.25597 36.568 8.76797C37.08 9.27997 37.3351 9.91286 37.3334 10.6666C37.3316 11.4204 37.0756 12.0542 36.5654 12.568C36.0551 13.0817 35.4222 13.3369 34.6667 13.3333H23.6667L18.8 18.6666H8.00002V50.6666H50.6667V29.3333C50.6667 28.5777 50.9227 27.9449 51.4347 27.4346C51.9467 26.9244 52.5796 26.6684 53.3334 26.6666C54.0871 26.6649 54.7209 26.9209 55.2347 27.4346C55.7485 27.9484 56.0036 28.5813 56 29.3333V50.6666C56 52.1333 55.4782 53.3893 54.4347 54.4346C53.3911 55.48 52.1351 56.0017 50.6667 56H8.00002ZM50.6667 13.3333H48C47.2445 13.3333 46.6116 13.0773 46.1014 12.5653C45.5911 12.0533 45.3351 11.4204 45.3334 10.6666C45.3316 9.91286 45.5876 9.27997 46.1014 8.76797C46.6151 8.25597 47.248 7.99997 48 7.99997H50.6667V5.3333C50.6667 4.57775 50.9227 3.94486 51.4347 3.43464C51.9467 2.92441 52.5796 2.66841 53.3334 2.66664C54.0871 2.66486 54.7209 2.92086 55.2347 3.43464C55.7485 3.94841 56.0036 4.5813 56 5.3333V7.99997H58.6667C59.4222 7.99997 60.056 8.25597 60.568 8.76797C61.08 9.27997 61.3351 9.91286 61.3334 10.6666C61.3316 11.4204 61.0756 12.0542 60.5654 12.568C60.0551 13.0817 59.4222 13.3369 58.6667 13.3333H56V16C56 16.7555 55.744 17.3893 55.232 17.9013C54.72 18.4133 54.0871 18.6684 53.3334 18.6666C52.5796 18.6649 51.9467 18.4089 51.4347 17.8986C50.9227 17.3884 50.6667 16.7555 50.6667 16V13.3333ZM29.3334 46.6666C32.6667 46.6666 35.5005 45.5004 37.8347 43.168C40.1689 40.8355 41.3351 38.0017 41.3334 34.6666C41.3316 31.3315 40.1654 28.4986 37.8347 26.168C35.504 23.8373 32.6702 22.6702 29.3334 22.6666C25.9965 22.6631 23.1636 23.8302 20.8347 26.168C18.5058 28.5057 17.3387 31.3386 17.3334 34.6666C17.328 37.9946 18.4951 40.8284 20.8347 43.168C23.1742 45.5075 26.0071 46.6737 29.3334 46.6666ZM29.3334 41.3333C27.4667 41.3333 25.8889 40.6889 24.6 39.4C23.3111 38.1111 22.6667 36.5333 22.6667 34.6666C22.6667 32.8 23.3111 31.2222 24.6 29.9333C25.8889 28.6444 27.4667 28 29.3334 28C31.2 28 32.7778 28.6444 34.0667 29.9333C35.3556 31.2222 36 32.8 36 34.6666C36 36.5333 35.3556 38.1111 34.0667 39.4C32.7778 40.6889 31.2 41.3333 29.3334 41.3333Z" fill="black"/>
</svg>