<svg width="64" height="64" viewBox="0 0 64 64" fill="none" xmlns="http://www.w3.org/2000/svg">
<path d="M42.6666 21.3333V13.3333H21.3333V21.3333H16V8H48V21.3333H42.6666ZM48 33.3333C48.7555 33.3333 49.3893 33.0773 49.9013 32.5653C50.4133 32.0533 50.6684 31.4204 50.6666 30.6667C50.6649 29.9129 50.4089 29.28 49.8986 28.768C49.3884 28.256 48.7555 28 48 28C47.2444 28 46.6115 28.256 46.1013 28.768C45.5911 29.28 45.3351 29.9129 45.3333 30.6667C45.3315 31.4204 45.5875 32.0542 46.1013 32.568C46.6151 33.0818 47.248 33.3369 48 33.3333ZM42.6666 50.6667V40H21.3333V50.6667H42.6666ZM48 56H16V45.3333H5.33331V29.3333C5.33331 27.0667 6.11109 25.1671 7.66665 23.6347C9.2222 22.1022 11.1111 21.3351 13.3333 21.3333H50.6666C52.9333 21.3333 54.8338 22.1004 56.368 23.6347C57.9022 25.1689 58.6684 27.0684 58.6666 29.3333V45.3333H48V56ZM53.3333 40V29.3333C53.3333 28.5778 53.0773 27.9449 52.5653 27.4347C52.0533 26.9244 51.4204 26.6684 50.6666 26.6667H13.3333C12.5778 26.6667 11.9449 26.9227 11.4346 27.4347C10.9244 27.9467 10.6684 28.5796 10.6666 29.3333V40H16V34.6667H48V40H53.3333Z" fill="black"/>
</svg>
