<svg width="64" height="64" viewBox="0 0 64 64" fill="none" xmlns="http://www.w3.org/2000/svg">
<g clip-path="url(#clip0_9_3)">
<path d="M64 41.7L63.1 39.2C62.4 39.5 61.6 39.1 61.4 38.4C61.1 37.7 61.5 36.9 62.2 36.7L61.2 34C60.5 34.3 59.7 33.9 59.5 33.2C59.2 32.5 59.6 31.7 60.3 31.5L59.4 29C58.7 29.3 57.9 28.9 57.7 28.2C57.4 27.5 57.8 26.7 58.5 26.5L57.6 24C56.9 24.2 56.2 23.9 55.9 23.3C53.2 23.6 50.5 22.1 49.6 19.4L12.2 32.8C13.3 35.9 11.7 39.3 8.59998 40.5L15.9 60.4C19 59.3 22.4 60.9 23.6 64L60.9 50.4C59.9 47.7 61 44.8 63.3 43.3C63 42.7 63.3 41.9 64 41.7Z" fill="#FBBF67"/>
<path d="M56.6 46.7L24.4 58.4C22.7 59 20.8 58.1 20.1 56.4L14.4 40.7C13.8 39 14.7 37.1 16.4 36.4L48.6 24.7C50.3 24.1 52.2 25 52.9 26.7L58.6 42.4C59.2 44.2 58.3 46.1 56.6 46.7ZM17 38.1C16.1 38.4 15.7 39.4 16 40.2L21.7 55.9C22 56.8 23 57.2 23.8 56.9L56 45.2C56.9 44.9 57.3 43.9 57 43.1L51.3 27.4C51 26.5 50 26.1 49.2 26.4L17 38.1Z" fill="#FF5555"/>
<path d="M30.9 43.1L30 43.4C29.9 43.4 29.8 43.4 29.8 43.3L29.3 42.3L28.7 42.5L29 43.6C29 43.7 29 43.8 28.9 43.8L28 44.1C27.9 44.1 27.9 44.1 27.8 44L26.1 37.1C26.1 37 26.1 36.9 26.2 36.9L27.5 36.4C27.6 36.4 27.7 36.4 27.7 36.5L30.9 42.9C31 43 31 43.1 30.9 43.1ZM28.8 41.2L27.6 38.6H27.5L28.3 41.3L28.8 41.2ZM32.8 37.1L34 40.5C34.2 41.2 33.9 41.9 33.2 42.2L31.7 42.7C31.6 42.7 31.5 42.7 31.5 42.6L29.5 37C29.5 36.9 29.5 36.8 29.6 36.8L31.1 36.3C31.8 36.1 32.6 36.4 32.8 37.1ZM31.7 37.6C31.7 37.5 31.5 37.4 31.4 37.4L31 37.5L32.4 41.3L32.7 41.2C32.8 41.2 32.9 41 32.8 40.9L31.7 37.6ZM37 34.3L39.1 39.9C39.1 40 39.1 40.1 39 40.1L38.1 40.4C38 40.4 37.9 40.4 37.9 40.3L36.9 37.7L37.1 40.3C37.1 40.4 37 40.4 37 40.3L35.5 38.2L36.5 40.8C36.5 40.9 36.5 41 36.4 41L35.5 41.3C35.4 41.3 35.3 41.3 35.3 41.2L33.2 35.6C33.2 35.5 33.2 35.4 33.3 35.4L34.1 35.1C34.2 35.1 34.3 35.1 34.3 35.2L36.2 38L35.9 34.7C35.9 34.6 35.9 34.5 36 34.5L36.8 34.2C36.9 34.2 37 34.2 37 34.3ZM41.1 39.2C41.1 39.3 41.1 39.4 41 39.4L40.1 39.7C40 39.7 39.9 39.7 39.9 39.6L37.9 34C37.9 33.9 37.9 33.8 38 33.8L38.9 33.5C39 33.5 39.1 33.5 39.1 33.6L41.1 39.2ZM42.6 32.3L42.9 33.2C42.9 33.3 42.9 33.4 42.8 33.4L42.1 33.7L43.8 38.3C43.8 38.4 43.8 38.5 43.7 38.5L42.8 38.8C42.7 38.8 42.6 38.8 42.6 38.7L41 34L40.3 34.3C40.2 34.3 40.1 34.3 40.1 34.2L39.8 33.3C39.8 33.2 39.8 33.1 39.9 33.1L42.4 32.2C42.5 32.2 42.6 32.2 42.6 32.3ZM35.7 50.3L35.3 50.4C34.6 50.6 33.9 50.3 33.6 49.6L32 45C31.8 44.3 32.1 43.6 32.8 43.3L33.2 43.2C33.9 43 34.6 43.3 34.9 44L36.6 48.6C36.8 49.2 36.4 50 35.7 50.3ZM33.4 44.3C33.2 44.4 33.1 44.5 33.2 44.7L34.8 49.2C34.8 49.3 35 49.4 35.1 49.3H35.2C35.3 49.3 35.4 49.1 35.4 49L33.8 44.5C33.7 44.3 33.5 44.3 33.4 44.3ZM38.8 42.5L40.9 48.1C40.9 48.2 40.9 48.3 40.8 48.3L40.2 48.5C40.1 48.5 40 48.5 40 48.4L38 46.2L38.9 48.8C38.9 48.9 38.9 49 38.8 49L37.9 49.3C37.8 49.3 37.7 49.3 37.7 49.2L35.6 43.6C35.6 43.5 35.6 43.4 35.7 43.4L36.4 43.2C36.5 43.2 36.6 43.2 36.6 43.3L38.7 45.8L37.7 42.9C37.7 42.8 37.7 42.7 37.8 42.7L38.7 42.4C38.7 42.4 38.8 42.4 38.8 42.5ZM43.8 46.1L44.1 47C44.1 47.1 44.1 47.2 44 47.2L41.9 48C41.8 48 41.7 48 41.7 47.9L39.6 42.3C39.6 42.2 39.6 42.1 39.7 42.1L41.8 41.3C41.9 41.3 42 41.3 42 41.4L42.3 42.3C42.3 42.4 42.3 42.5 42.2 42.5L41.1 42.9L41.5 44L42.5 43.6C42.6 43.6 42.7 43.6 42.7 43.7L43 44.6C43 44.7 43 44.8 42.9 44.8L41.9 45.2L42.4 46.5L43.5 46.1C43.7 46 43.8 46 43.8 46.1Z" fill="#89664C"/>
<g opacity="0.5">
<path d="M25.4 54.8L55.8 29.3C54.3 27.5 54.1 25.2 54.9 23.2C52.5 23.1 50.4 21.6 49.5 19.3L12.2 32.8C13.3 35.9 11.7 39.3 8.59998 40.5L10.9 46.9L16.9 54.1C19.5 51.9 23.2 52.3 25.4 54.8" fill="#947151"/>
<path opacity="0.5" d="M25.4 54.8L55.8 29.3C54.3 27.5 54.1 25.2 54.9 23.2C52.5 23.1 50.4 21.6 49.5 19.3L12.2 32.8C13.3 35.9 11.7 39.3 8.59998 40.5L10.9 46.9L16.9 54.1C19.5 51.9 23.2 52.3 25.4 54.8" fill="#947151"/>
</g>
<path d="M52.5 16.1L50.8 14C50.2 14.5 49.4 14.4 48.9 13.8C48.4 13.2 48.5 12.4 49.1 11.9L47.4 9.8C46.8 10.3 46 10.2 45.5 9.6C45 9 45.1 8.2 45.7 7.7L44 5.6C43.4 6.1 42.6 6 42.1 5.4C41.4 5 41.5 4.2 42 3.7L40.3 1.6C39.7 2.1 38.9 2 38.4 1.5C36 2.7 33 2.2 31.1 0L0.7 25.5C2.9 28.1 2.5 31.9 0 34L13.6 50.3C16.1 48.2 19.9 48.5 22 51L52.4 25.5C50.6 23.3 50.6 20.2 52.2 18C51.9 17.4 52 16.6 52.5 16.1Z" fill="#FBBF67"/>
<path d="M47.2 23.4L21 45.4C19.6 46.6 17.5 46.4 16.3 45L5.60002 32.2C4.40002 30.8 4.60002 28.7 6.00002 27.5L32.2 5.49998C33.6 4.29998 35.7 4.49998 36.9 5.89998L47.6 18.7C48.8 20.1 48.6 22.2 47.2 23.4ZM7.10002 28.8C6.40002 29.4 6.30002 30.4 6.90002 31.1L17.6 44C18.2 44.7 19.2 44.8 19.9 44.2L46.1 22.2C46.8 21.6 46.9 20.6 46.3 19.9L35.6 6.99998C35 6.29998 34 6.19998 33.3 6.79998L7.10002 28.8Z" fill="#FF5555"/>
<path d="M21.9 28.8L21.2 29.4C21.1 29.5 21 29.4 21 29.4L20.2 28.6L19.6 29L20.3 29.9V30.1L19.6 30.7C19.5 30.8 19.5 30.7 19.4 30.7L15.5 24.8V24.6L16.6 23.7C16.7 23.6 16.8 23.6 16.8 23.7L21.9 28.6V28.8ZM19.3 27.7L17.3 25.6L17.2 25.7L18.9 28L19.3 27.7ZM21.6 22.5L23.9 25.3C24.4 25.9 24.3 26.7 23.7 27.2L22.5 28.2C22.4 28.3 22.3 28.2 22.3 28.2L18.4 23.6C18.3 23.5 18.4 23.4 18.4 23.4L19.6 22.4C20.3 21.9 21.1 21.9 21.6 22.5ZM20.7 23.3C20.6 23.2 20.4 23.2 20.3 23.3L20 23.5L22.6 26.6L22.9 26.4C23 26.3 23 26.2 22.9 26L20.7 23.3ZM24.6 18.4L28.5 23C28.6 23.1 28.5 23.2 28.5 23.2L27.7 23.8C27.6 23.9 27.5 23.8 27.5 23.8L25.7 21.7L26.8 24.1C26.8 24.2 26.8 24.2 26.7 24.2L24.6 22.7L26.4 24.8C26.5 24.9 26.4 25 26.4 25L25.6 25.6C25.5 25.7 25.4 25.6 25.4 25.6L21.5 21C21.4 20.9 21.5 20.8 21.5 20.8L22.2 20.2C22.3 20.1 22.4 20.2 22.4 20.2L25.1 22.1L23.7 19.1V18.9L24.4 18.3C24.5 18.4 24.6 18.4 24.6 18.4ZM30.2 21.6C30.3 21.7 30.2 21.8 30.2 21.8L29.5 22.4C29.4 22.5 29.3 22.4 29.3 22.4L25.4 17.8C25.3 17.7 25.4 17.6 25.4 17.6L26.1 17C26.2 16.9 26.3 17 26.3 17L30.2 21.6ZM29.2 14.6L29.8 15.3C29.9 15.4 29.8 15.5 29.8 15.5L29.2 16L32.4 19.8C32.5 19.9 32.4 20 32.4 20L31.7 20.6H31.5L28.3 16.8L27.7 17.3C27.6 17.4 27.5 17.3 27.5 17.3L26.9 16.6C26.8 16.5 26.9 16.4 26.9 16.4L29 14.7C29 14.6 29.1 14.6 29.2 14.6ZM28.9 33.9L28.6 34.2C28 34.7 27.2 34.6 26.7 34L23.6 30.3C23.1 29.7 23.2 28.9 23.8 28.4L24.1 28.1C24.7 27.6 25.5 27.7 26 28.3L29 32C29.5 32.6 29.4 33.4 28.9 33.9ZM24.6 29.1C24.4 29.2 24.4 29.4 24.5 29.5L27.6 33.1C27.7 33.2 27.8 33.2 28 33.1L28.1 33C28.2 32.9 28.2 32.7 28.1 32.6L25 29.1C24.9 29 24.7 29 24.6 29.1ZM29.1 25.5L33 30.1C33.1 30.2 33 30.3 33 30.3L32.5 30.7C32.4 30.8 32.3 30.8 32.3 30.7L29.7 29.3L31.5 31.4C31.6 31.5 31.5 31.6 31.5 31.6L30.8 32.2C30.7 32.3 30.6 32.2 30.6 32.2L26.7 27.6C26.6 27.5 26.7 27.4 26.7 27.4L27.2 27C27.3 26.9 27.4 26.9 27.4 27L30.2 28.6L28.2 26.3C28.1 26.2 28.2 26.1 28.2 26.1L28.9 25.5H29.1ZM35 27.2L35.6 27.9C35.7 28 35.6 28.1 35.6 28.1L33.9 29.6C33.8 29.7 33.7 29.6 33.7 29.6L29.8 25C29.7 24.9 29.8 24.8 29.8 24.8L31.5 23.3C31.6 23.2 31.7 23.3 31.7 23.3L32.3 24C32.4 24.1 32.3 24.2 32.3 24.2L31.4 25L32.2 25.9L33 25.2C33.1 25.1 33.2 25.2 33.2 25.2L33.8 25.9C33.9 26 33.8 26.1 33.8 26.1L33 26.8L33.9 27.9L34.8 27.1C34.9 27.1 35 27.1 35 27.2Z" fill="#89664C"/>
</g>
<defs>
<clipPath id="clip0_9_3">
<rect width="64" height="64" fill="white"/>
</clipPath>
</defs>
</svg>
